<?xml version="1.0" encoding="UTF-8" standalone="no"?><!DOCTYPE svg PUBLIC "-//W3C//DTD SVG 1.1//EN" "http://www.w3.org/Graphics/SVG/1.1/DTD/svg11.dtd"><svg width="100%" height="100%" viewBox="0 0 300 150" version="1.1" xmlns="http://www.w3.org/2000/svg" xmlns:xlink="http://www.w3.org/1999/xlink" xml:space="preserve" style="fill-rule:evenodd;clip-rule:evenodd;stroke-linejoin:round;stroke-miterlimit:1.41421;"><g><path d="M293.143,120.232l-160,0c0,0 5.841,31.691 21.297,40.064c19.469,10.547 70.913,10.027 91.982,2.413c24.342,-8.796 37.88,-27.506 46.721,-42.477Z" style="fill:#19314d;"/><path d="M233.428,0.75c0,-0.414 -0.336,-0.75 -0.75,-0.75l-3.5,0c-0.414,0 -0.75,0.336 -0.75,0.75l0,128.5c0,0.414 0.336,0.75 0.75,0.75l3.5,0c0.414,0 0.75,-0.336 0.75,-0.75l0,-128.5Z" style="fill:#19314d;"/><path d="M233.928,6.652c0,-0.331 -0.268,-0.6 -0.6,-0.6l-4.8,0c-0.331,0 -0.6,0.269 -0.6,0.6l0,2.8c0,0.331 0.269,0.6 0.6,0.6l4.8,0c0.332,0 0.6,-0.269 0.6,-0.6l0,-2.8Z" style="fill:#40a9bf;"/><path d="M234.428,115.155c0,-0.332 -0.268,-0.6 -0.6,-0.6l-5.8,0c-0.331,0 -0.6,0.268 -0.6,0.6l0,2.8c0,0.331 0.269,0.6 0.6,0.6l5.8,0c0.332,0 0.6,-0.269 0.6,-0.6l0,-2.8Z" style="fill:#40a9bf;"/><path d="M235.083,8.052c0,0 14.916,32.61 14.916,54.251c0,21.642 -6.683,41.593 -14.916,54.252c27.441,0 64.917,-8.942 64.917,-38.885c0,-29.942 -64.917,-69.618 -64.917,-69.618Z" style="fill:#40a9bf;"/></g></svg>