<?xml version="1.0" encoding="UTF-8" standalone="no"?>
<!DOCTYPE svg PUBLIC "-//W3C//DTD SVG 1.1//EN" "http://www.w3.org/Graphics/SVG/1.1/DTD/svg11.dtd">
<svg width="100%" height="100%" viewBox="0 0 242 242" version="1.1" xmlns="http://www.w3.org/2000/svg" xmlns:xlink="http://www.w3.org/1999/xlink" xml:space="preserve" style="fill-rule:evenodd;clip-rule:evenodd;stroke-miterlimit:1.5;">
    <g transform="matrix(1.00029,0,0,1.00029,-503.428,-152.934)">
        <g transform="matrix(6.15372e-17,1.10856,-1.05606,5.8623e-17,917.875,-419.722)">
            <ellipse cx="625.627" cy="278.022" rx="8.119" ry="8.522" style="fill:white;stroke:black;stroke-width:0.09px;"/>
        </g>
        <g>
            <g transform="matrix(5.55112e-17,1,-1,5.55112e-17,899.734,-351.18)">
                <g transform="matrix(1.00643,0,0,0.641691,-13.9095,99.6564)">
                    <path d="M755.053,277.096C755.053,273.655 753.273,270.862 751.079,270.862L634.827,270.862L634.827,277.096L755.053,277.096Z" style="fill:white;stroke:black;stroke-width:0.12px;"/>
                </g>
                <g transform="matrix(7.94408,0,0,1,-4408.62,2.63798)">
                    <path d="M635.485,264.278L648.422,270.862L634.827,270.862L635.485,264.278Z" style="fill:white;stroke:black;stroke-width:0.01px;"/>
                </g>
                <g transform="matrix(-3.97204,6.87978,-0.866025,-0.5,3378.08,-3947.36)">
                    <path d="M635.485,264.278L648.422,270.862L634.827,270.862L635.485,264.278Z" style="fill:white;stroke:black;stroke-width:0.01px;"/>
                </g>
                <g transform="matrix(-3.97204,-6.87978,0.866025,-0.5,2905.53,4771.12)">
                    <path d="M635.485,264.278L648.422,270.862L634.827,270.862L635.485,264.278Z" style="fill:white;stroke:black;stroke-width:0.01px;"/>
                </g>
                <g transform="matrix(-0.503216,0.871595,-0.555721,-0.320845,1096.71,-189.941)">
                    <path d="M755.053,277.096C755.053,273.655 753.273,270.862 751.079,270.862L634.827,270.862L634.827,277.096L755.053,277.096Z" style="fill:white;stroke:black;stroke-width:0.12px;"/>
                </g>
                <g transform="matrix(-0.503216,-0.871595,0.555721,-0.320845,792.199,916.683)">
                    <path d="M755.053,277.096C755.053,273.655 753.273,270.862 751.079,270.862L634.827,270.862L634.827,277.096L755.053,277.096Z" style="fill:white;stroke:black;stroke-width:0.12px;"/>
                </g>
            </g>
            <g transform="matrix(-1.34667,1.64919e-16,-1.60735e-16,-1.3125,1467.95,635.195)">
                <path d="M626.5,270L631,278L622,278L626.5,270Z" style="fill:white;stroke:black;stroke-width:0.08px;"/>
            </g>
        </g>
    </g>
</svg>
