<?xml version="1.0" encoding="UTF-8" standalone="no"?><!DOCTYPE svg PUBLIC "-//W3C//DTD SVG 1.1//EN" "http://www.w3.org/Graphics/SVG/1.1/DTD/svg11.dtd"><svg width="100%" height="100%" viewBox="0 0 48 47" version="1.1" xmlns="http://www.w3.org/2000/svg" xmlns:xlink="http://www.w3.org/1999/xlink" xml:space="preserve" style="fill-rule:evenodd;clip-rule:evenodd;stroke-linejoin:round;stroke-miterlimit:1.41421;"><path d="M40.46,4.145c0,-1.555 -1.451,-3.329 -3.239,-3.329l-25.913,-0.816c-1.788,0 -3.239,1.263 -3.239,2.819l0,40.932c0,1.555 1.451,2.818 3.239,2.818l25.913,0c1.788,0 3.239,-1.263 3.239,-2.818l0,-39.606Z" style="fill:#fe386a;"/><path d="M0.004,43.172c-0.087,0.585 1.347,4.334 1.818,0c1.572,-14.473 7.116,-16.701 7.116,-16.701l0,-2.25c0,0 -6.061,-0.525 -8.934,18.951Z" style="fill:#fe386a;"/><path d="M38.098,24.221l0,2.25c0,0 8.368,0.15 7.931,18.764c-0.048,2.043 1.976,1.211 1.966,0c-0.167,-20.243 -9.897,-21.014 -9.897,-21.014Z" style="fill:#fe386a;"/><circle cx="17.089" cy="20.938" r="1.125" style="fill:#19314d;"/><circle cx="32.196" cy="20.938" r="1.125" style="fill:#19314d;"/><path d="M33.321,27.697c0.44,-0.382 -0.176,-1.246 -0.598,-0.915c-1.222,0.958 -3.192,2.348 -7.647,2.331c-5.263,-0.02 -7.913,-2.031 -8.348,-2.331c-0.597,-0.412 -1.008,0.315 -0.656,0.591c0.597,0.467 3.884,2.87 9.004,2.876c4.439,0.006 6.732,-1.241 8.245,-2.552Z" style="fill:#19314d;"/></svg>