<?xml version="1.0" encoding="UTF-8" standalone="no"?><!DOCTYPE svg PUBLIC "-//W3C//DTD SVG 1.1//EN" "http://www.w3.org/Graphics/SVG/1.1/DTD/svg11.dtd"><svg width="100%" height="100%" viewBox="0 0 525 45" version="1.1" xmlns="http://www.w3.org/2000/svg" xmlns:xlink="http://www.w3.org/1999/xlink" xml:space="preserve" style="fill-rule:evenodd;clip-rule:evenodd;stroke-linejoin:round;stroke-miterlimit:1.41421;"><path d="M52.5,7.5c-9.743,3.314 -14.428,4.785 -33.592,5.255c-18.64,0.457 -18.908,-5.255 -18.908,-5.255l0,37.5l52.5,0l0,-37.5Z" style="fill:#19314c;"/><path d="M105,7.5c-9.743,3.314 -14.428,4.785 -33.592,5.255c-18.64,0.457 -18.908,-5.255 -18.908,-5.255l0,37.5l52.5,0l0,-37.5Z" style="fill:#19314c;"/><path d="M157.5,7.5c-9.743,3.314 -14.428,4.785 -33.592,5.255c-18.64,0.457 -18.908,-5.255 -18.908,-5.255l0,37.5l52.5,0l0,-37.5Z" style="fill:#19314c;"/><path d="M210,7.5c-9.743,3.314 -14.428,4.785 -33.592,5.255c-18.64,0.457 -18.908,-5.255 -18.908,-5.255l0,37.5l52.5,0l0,-37.5Z" style="fill:#19314c;"/><path d="M262.5,7.5c-9.743,3.314 -14.428,4.785 -33.592,5.255c-18.64,0.457 -18.908,-5.255 -18.908,-5.255l0,37.5l52.5,0l0,-37.5Z" style="fill:#19314c;"/><path d="M315,7.5c-9.743,3.314 -14.428,4.785 -33.592,5.255c-18.64,0.457 -18.908,-5.255 -18.908,-5.255l0,37.5l52.5,0l0,-37.5Z" style="fill:#19314c;"/><path d="M367.5,7.5c-9.743,3.314 -14.428,4.785 -33.592,5.255c-18.64,0.457 -18.908,-5.255 -18.908,-5.255l0,37.5l52.5,0l0,-37.5Z" style="fill:#19314c;"/><path d="M420,7.5c-9.743,3.314 -14.428,4.785 -33.592,5.255c-18.64,0.457 -18.908,-5.255 -18.908,-5.255l0,37.5l52.5,0l0,-37.5Z" style="fill:#19314c;"/><path d="M472.5,7.5c-9.743,3.314 -14.428,4.785 -33.592,5.255c-18.64,0.457 -18.908,-5.255 -18.908,-5.255l0,37.5l52.5,0l0,-37.5Z" style="fill:#19314c;"/><path d="M525,7.5c-9.743,3.314 -14.428,4.785 -33.592,5.255c-18.64,0.457 -18.908,-5.255 -18.908,-5.255l0,37.5l52.5,0l0,-37.5Z" style="fill:#19314c;"/></svg>