<?xml version="1.0" encoding="UTF-8" standalone="no"?>
<!DOCTYPE svg PUBLIC "-//W3C//DTD SVG 1.1//EN" "http://www.w3.org/Graphics/SVG/1.1/DTD/svg11.dtd">
<svg width="100%" height="100%" viewBox="0 0 1280 960" version="1.1" xmlns="http://www.w3.org/2000/svg" xmlns:xlink="http://www.w3.org/1999/xlink" xml:space="preserve" style="fill-rule:evenodd;clip-rule:evenodd;stroke-linejoin:round;stroke-miterlimit:1.41421;">
    <g transform="matrix(0.931515,0,0,1.01189,-8.11452,-63.6069)">
        <ellipse cx="695.764" cy="434.158" rx="292.586" ry="271.769" style="fill:rgb(255,248,73);"/>
    </g>
    <g transform="matrix(1.8156,0,0,1.8156,-430.265,-187.484)">
        <path d="M522.91,261.42L522.455,291.437C522.455,305.612 523.668,317.513 526.094,327.14L526.094,327.253C525.032,332.18 524.502,338.093 524.502,344.991L526.435,386.833C526.435,394.413 524.199,398.203 519.726,398.203C517.149,398.203 515.254,396.99 514.041,394.564C512.828,392.139 512.222,389.448 512.222,386.492L514.041,349.311C514.041,341.276 513.511,329.186 512.449,313.041C511.388,296.895 510.858,284.805 510.858,276.77L511.199,256.417C511.199,245.275 510.479,238.036 509.038,234.7L496.418,235.951C494.447,235.951 492.684,235.364 491.13,234.189C489.576,233.014 488.8,231.498 488.8,229.641C488.8,227.783 490.657,226.192 494.371,224.865C498.085,223.539 502.633,222.572 508.015,221.966C517.339,220.904 525.184,220.374 531.551,220.374C533.446,220.374 535.171,220.999 536.725,222.25C538.279,223.501 539.056,225.074 539.056,226.969C539.056,228.864 538.373,230.361 537.009,231.46C535.645,232.559 533.977,233.108 532.006,233.108L523.706,232.654C522.645,232.654 521.849,232.692 521.318,232.767C522.379,241.712 522.91,251.263 522.91,261.42Z" style="fill-rule:nonzero;"/>
        <path d="M589.766,302.921L587.72,226.514C587.644,225.377 588.25,224.126 589.539,222.762C590.828,221.397 592.287,220.715 593.916,220.715C595.546,220.715 597.005,222.079 598.294,224.808C599.583,227.537 600.227,232.009 600.227,238.225C600.227,255.28 600.947,280.882 602.387,315.03C603.827,349.179 604.548,374.743 604.548,391.722C604.548,393.769 603.903,395.683 602.615,397.464C601.326,399.245 599.696,400.136 597.725,400.136C593.784,400.136 591.813,397.559 591.813,392.404C591.813,363.448 591.169,336.084 589.88,310.312C585.711,309.554 581.883,309.175 578.396,309.175C574.909,309.175 571.802,309.781 569.073,310.994C569.149,319.484 569.812,332.502 571.063,350.05C572.313,367.598 572.939,380.882 572.939,389.903C572.939,391.419 572.484,392.821 571.574,394.11C570.665,395.398 569.452,396.043 567.936,396.043C565.434,396.043 563.558,395 562.307,392.916C561.057,390.831 560.261,385.336 559.92,376.429C559.579,367.522 559.37,357.763 559.294,347.151C559.219,336.539 559.105,330.209 558.953,328.163C556.149,287.837 554.746,253.423 554.746,224.922L554.746,223.216C554.974,220.791 556.3,219.578 558.726,219.578C563.501,219.578 566.23,221.208 566.912,224.467C566.382,230.001 566.116,235.837 566.116,241.977L567.708,289.845L567.481,298.6C567.481,300.799 567.633,302.807 567.936,304.627L589.766,302.921Z" style="fill-rule:nonzero;"/>
        <path d="M689.483,329.982L690.165,344.308L690.165,347.833L689.596,350.335L689.71,363.865C689.71,377.509 687.777,387.174 683.911,392.859C680.273,398.165 674.626,400.818 666.97,400.818C657.646,400.818 650.559,397.445 645.707,390.699C641.463,384.938 638.355,377.206 636.384,367.504C633.883,355.83 631.874,347.568 630.358,342.717C630.206,342.338 629.353,324.979 627.8,290.641C626.246,256.304 625.469,237.24 625.469,233.45C624.332,232.161 623.763,230.569 623.763,228.674C623.763,226.779 624.426,225.111 625.753,223.671C627.079,222.231 628.652,221.511 630.472,221.511C636.081,221.511 638.885,227.044 638.885,238.111L641.046,319.067C641.955,321.113 642.732,325.245 643.377,331.46C644.021,337.676 644.343,342.508 644.343,345.957C644.343,349.406 644.893,353.651 645.992,358.692C647.091,363.732 648.588,368.83 650.483,373.985C652.378,379.139 654.936,383.535 658.158,387.174C661.379,390.812 664.809,392.632 668.448,392.632C674.36,392.632 677.468,387.288 677.771,376.6C677.847,375.235 677.885,373.606 677.885,371.71L677.885,267.219C677.885,262.822 677.051,256.171 675.384,247.264C673.716,238.358 672.882,232.331 672.882,229.186C672.882,226.04 673.659,223.88 675.213,222.705C676.767,221.53 678.529,220.942 680.5,220.942L687.55,226.4L687.55,230.266L685.503,244.479C685.503,253.499 686.072,266.707 687.209,284.104C688.346,301.5 688.952,314.405 689.028,322.819L689.028,323.16L689.483,329.982Z" style="fill-rule:nonzero;"/>
    </g>
    <g transform="matrix(1.0279,0,0,1.0279,9.00559,-75.9706)">
        <path d="M224.256,788.759L223.986,806.579C223.986,814.994 224.706,822.059 226.146,827.774L226.146,827.842C225.516,830.767 225.201,834.277 225.201,838.372L226.348,863.212C226.348,867.712 225.021,869.962 222.366,869.962C220.836,869.962 219.711,869.242 218.991,867.802C218.271,866.362 217.911,864.764 217.911,863.009L218.991,840.937C218.991,836.167 218.676,828.989 218.046,819.404C217.416,809.819 217.101,802.642 217.101,797.872L217.303,785.789C217.303,779.174 216.876,774.877 216.021,772.897L208.528,773.639C207.358,773.639 206.312,773.29 205.39,772.593C204.467,771.895 204.006,770.995 204.006,769.893C204.006,768.79 205.108,767.845 207.313,767.058C209.518,766.27 212.218,765.697 215.413,765.337C220.948,764.707 225.606,764.392 229.386,764.392C230.511,764.392 231.535,764.763 232.457,765.505C233.38,766.248 233.841,767.182 233.841,768.307C233.841,769.432 233.436,770.32 232.626,770.973C231.816,771.625 230.826,771.952 229.656,771.952L224.728,771.682C224.098,771.682 223.626,771.704 223.311,771.749C223.941,777.059 224.256,782.729 224.256,788.759Z" style="fill-rule:nonzero;"/>
        <path d="M252.268,785.789L251.728,820.282C253.348,820.732 255.778,820.957 259.018,820.957L264.283,820.957L264.283,818.054C264.283,813.824 263.968,807.468 263.338,798.985C262.708,790.503 262.393,784.147 262.393,779.917C262.393,778.882 262.787,778.015 263.575,777.318C264.362,776.62 265.06,776.272 265.667,776.272C266.275,776.272 266.803,776.238 267.253,776.17C267.703,776.103 268.075,776.08 268.367,776.103C268.66,776.125 268.986,776.227 269.346,776.407C270.021,776.722 270.358,777.757 270.358,779.512C270.358,789.187 270.786,803.677 271.641,822.982C272.496,842.287 272.923,856.777 272.923,866.452C272.923,867.262 272.575,867.892 271.877,868.342C271.18,868.792 270.291,869.017 269.211,869.017C268.131,869.017 267.118,868.735 266.173,868.173C265.228,867.61 264.733,866.857 264.688,865.912C264.193,856.732 263.946,845.437 263.946,832.027L263.946,831.487L263.878,827.504L263.811,826.222L263.811,826.087C263.091,826.267 262.056,826.357 260.706,826.357L252.133,825.074L251.728,840.329L251.728,840.937L252.876,863.684C252.876,865.034 252.55,866.204 251.897,867.194C251.245,868.184 250.288,868.679 249.028,868.679C247.183,868.679 245.912,867.003 245.215,863.65C244.517,860.298 244.168,855.719 244.168,849.914L244.573,828.854L244.641,820.957L244.911,812.857L243.966,781.672C243.966,780.592 244.348,779.635 245.113,778.803C245.878,777.97 246.801,777.554 247.881,777.554C250.806,777.554 252.268,780.299 252.268,785.789Z" style="fill-rule:nonzero;"/>
        <path d="M299.316,863.819L304.783,863.482C308.293,863.482 310.048,864.607 310.048,866.857C310.048,868.252 309.441,869.264 308.226,869.894C307.011,870.524 305.638,870.839 304.108,870.839L291.081,870.839C289.911,870.839 288.91,870.434 288.077,869.624C287.245,868.814 286.795,867.779 286.727,866.519C286.66,865.259 286.75,863.684 286.997,861.794C287.245,859.904 287.368,858.397 287.368,857.272L286.693,839.587L287.638,799.222L286.896,787.544C286.896,781.019 288.831,777.757 292.701,777.757C293.781,777.757 294.793,778.094 295.738,778.769C296.098,778.814 296.965,778.893 298.337,779.005C299.71,779.118 300.913,779.264 301.948,779.444C302.983,779.624 304.108,779.872 305.323,780.187C307.933,780.907 309.238,782.144 309.238,783.899C309.238,785.789 307.888,787.229 305.188,788.219C300.958,786.779 297.471,785.902 294.726,785.587C294.861,787.567 294.928,789.547 294.928,791.527L294.321,811.372C294.321,811.462 294.456,812.182 294.726,813.532C294.726,813.532 296.368,813.464 299.653,813.329C304.108,813.329 306.336,814.589 306.336,817.109C306.336,818.459 305.942,819.652 305.155,820.687C304.367,821.722 303.253,822.239 301.813,822.239C300.373,822.239 299.113,821.834 298.033,821.024L294.523,821.024C294.793,824.534 294.928,827.864 294.928,831.014L294.321,856.057C294.321,861.232 295.986,863.819 299.316,863.819Z" style="fill-rule:nonzero;"/>
        <path d="M360.741,813.397L359.526,768.037C359.481,767.362 359.841,766.619 360.606,765.809C361.371,764.999 362.237,764.594 363.205,764.594C364.172,764.594 365.038,765.404 365.803,767.024C366.568,768.644 366.951,771.299 366.951,774.989C366.951,785.114 367.378,800.313 368.233,820.585C369.088,840.858 369.516,856.034 369.516,866.114C369.516,867.329 369.133,868.465 368.368,869.523C367.603,870.58 366.636,871.109 365.466,871.109C363.126,871.109 361.956,869.579 361.956,866.519C361.956,849.329 361.573,833.084 360.808,817.784C358.333,817.334 356.061,817.109 353.991,817.109C351.921,817.109 350.076,817.469 348.456,818.189C348.501,823.229 348.895,830.958 349.637,841.375C350.38,851.793 350.751,859.679 350.751,865.034C350.751,865.934 350.481,866.767 349.941,867.532C349.401,868.297 348.681,868.679 347.781,868.679C346.296,868.679 345.182,868.06 344.44,866.823C343.697,865.585 343.225,862.323 343.022,857.035C342.82,851.748 342.696,845.954 342.651,839.654C342.606,833.354 342.538,829.597 342.448,828.382C340.783,804.442 339.951,784.012 339.951,767.092L339.951,766.079C340.086,764.639 340.873,763.919 342.313,763.919C345.148,763.919 346.768,764.887 347.173,766.822C346.858,770.107 346.701,773.572 346.701,777.217L347.646,805.634L347.511,810.832C347.511,812.137 347.601,813.329 347.781,814.409L360.741,813.397Z" style="fill-rule:nonzero;"/>
        <path d="M389.226,799.289L389.428,807.389L389.361,820.619C389.361,821.744 389.383,823.072 389.428,824.602C389.473,826.132 389.53,828.145 389.597,830.643C389.665,833.14 389.8,835.615 390.002,838.068C390.205,840.52 390.441,843.108 390.711,845.83C390.981,848.553 391.341,851.073 391.791,853.39C392.241,855.708 392.736,857.812 393.276,859.702C394.491,863.797 396.088,865.844 398.068,865.844C400.723,865.844 402.748,863.347 404.143,858.352C406.213,850.927 407.248,841.792 407.248,830.947L407.451,816.704C407.451,806.714 407.012,799.987 406.135,796.522C405.257,793.057 404.436,790.447 403.671,788.692C402.141,785.137 399.823,783.359 396.718,783.359C396.628,783.359 396.538,783.359 396.448,783.359C391.633,783.359 389.226,788.669 389.226,799.289ZM414.876,831.824C414.876,858.329 409.453,871.582 398.608,871.582C388.618,871.582 383.016,859.027 381.801,833.917C381.711,831.532 381.666,829.147 381.666,826.762L381.598,818.324L381.598,815.624C381.598,796.139 384.456,784.102 390.171,779.512C391.566,778.387 393.118,777.779 394.828,777.689C396.133,778.139 397.731,778.555 399.621,778.938C401.511,779.32 402.906,779.714 403.806,780.119C405.471,780.884 407.271,782.875 409.206,786.093C411.141,789.31 412.57,793.608 413.492,798.985C414.415,804.363 414.876,809.752 414.876,815.152L414.876,831.824Z" style="fill-rule:nonzero;"/>
        <path d="M435.801,814.477L436.611,850.252L436.611,865.912C436.611,867.127 436.296,868.15 435.666,868.983C435.036,869.815 434.158,870.232 433.033,870.232C430.018,870.232 428.511,867.419 428.511,861.794L428.241,813.059L429.051,787.274C429.051,781.064 430.738,777.959 434.113,777.959C436.138,777.959 437.601,779.512 438.501,782.617C439.761,788.557 441.955,797.095 445.082,808.233C448.21,819.37 450.358,827.842 451.528,833.647C452.383,836.482 453.486,840.678 454.836,846.235C456.186,851.793 457.243,855.967 458.008,858.757C458.368,838.777 458.548,814.567 458.548,786.127L458.346,782.414C458.346,781.154 458.582,780.153 459.055,779.41C459.527,778.668 460.326,778.297 461.451,778.297C462.576,778.297 463.498,778.567 464.218,779.107C465.658,780.187 466.378,781.717 466.378,783.697C466.378,796.342 466.018,812.587 465.298,832.432C464.578,852.277 463.498,864.674 462.058,869.624C461.878,869.669 461.496,869.793 460.911,869.995C460.326,870.198 459.898,870.322 459.628,870.367C457.063,870.952 455.443,870.839 454.768,870.029C454.093,869.219 453.61,868.139 453.317,866.789C453.025,865.439 452.687,864.123 452.305,862.84C451.922,861.558 450.493,855.427 448.018,844.447C441.403,815.422 437.331,798.547 435.801,793.822L435.801,814.477Z" style="fill-rule:nonzero;"/>
        <path d="M492.973,863.819L498.441,863.482C501.951,863.482 503.706,864.607 503.706,866.857C503.706,868.252 503.098,869.264 501.883,869.894C500.668,870.524 499.296,870.839 497.766,870.839L484.738,870.839C483.568,870.839 482.567,870.434 481.735,869.624C480.902,868.814 480.452,867.779 480.385,866.519C480.317,865.259 480.407,863.684 480.655,861.794C480.902,859.904 481.026,858.397 481.026,857.272L480.351,839.587L481.296,799.222L480.553,787.544C480.553,781.019 482.488,777.757 486.358,777.757C487.438,777.757 488.451,778.094 489.396,778.769C489.756,778.814 490.622,778.893 491.995,779.005C493.367,779.118 494.571,779.264 495.606,779.444C496.641,779.624 497.766,779.872 498.981,780.187C501.591,780.907 502.896,782.144 502.896,783.899C502.896,785.789 501.546,787.229 498.846,788.219C494.616,786.779 491.128,785.902 488.383,785.587C488.518,787.567 488.586,789.547 488.586,791.527L487.978,811.372C487.978,811.462 488.113,812.182 488.383,813.532C488.383,813.532 490.026,813.464 493.311,813.329C497.766,813.329 499.993,814.589 499.993,817.109C499.993,818.459 499.6,819.652 498.812,820.687C498.025,821.722 496.911,822.239 495.471,822.239C494.031,822.239 492.771,821.834 491.691,821.024L488.181,821.024C488.451,824.534 488.586,827.864 488.586,831.014L487.978,856.057C487.978,861.232 489.643,863.819 492.973,863.819Z" style="fill-rule:nonzero;"/>
        <path d="M513.426,863.212L520.716,864.224C522.471,864.224 524.001,863.459 525.306,861.929C526.611,860.399 527.578,858.487 528.208,856.192C529.423,851.782 530.031,847.878 530.031,844.48C530.031,841.083 529.468,837.719 528.343,834.389C527.218,831.059 525.846,827.965 524.226,825.108C522.606,822.25 520.963,819.337 519.298,816.367C515.428,809.392 513.493,802.507 513.493,795.712C513.493,791.572 514.191,787.904 515.586,784.709C518.196,778.769 521.661,775.799 525.981,775.799C527.601,775.799 529.142,776.317 530.605,777.352C532.067,778.387 532.798,779.512 532.798,780.727C532.798,782.842 531.673,783.899 529.423,783.899C528.433,783.899 527.466,783.629 526.521,783.089C523.596,783.224 521.616,786.487 520.581,792.877C520.356,794.272 520.243,795.903 520.243,797.77C520.243,799.638 520.648,801.944 521.458,804.689C522.268,807.434 523.292,809.875 524.53,812.013C525.767,814.15 527.095,816.513 528.512,819.1C529.93,821.688 531.268,824.197 532.528,826.627C535.363,832.252 536.781,838.687 536.781,845.932C536.781,851.692 535.633,857.024 533.338,861.929C532.123,864.449 530.402,866.508 528.175,868.105C525.947,869.703 523.371,870.524 520.446,870.569L520.446,870.907C518.736,870.682 517.183,870.108 515.788,869.185C514.393,868.263 513.606,867.059 513.426,865.574L513.426,863.212Z" style="fill-rule:nonzero;"/>
        <path d="M560.946,856.192L561.216,851.467C560.856,850.297 560.113,839.89 558.988,820.248C557.863,800.605 557.256,788.624 557.166,784.304C551.856,784.169 548.571,783.685 547.311,782.853C546.051,782.02 545.421,781.154 545.421,780.254C545.421,779.354 545.916,778.623 546.906,778.06C547.896,777.498 548.863,777.217 549.808,777.217L568.573,778.499L570.801,778.432C573.681,778.432 575.121,779.534 575.121,781.739C575.121,782.864 574.648,783.775 573.703,784.473C572.758,785.17 571.701,785.519 570.531,785.519L564.186,784.574L563.916,785.992C563.916,794.722 564.681,807.794 566.211,825.209C567.741,842.624 568.506,855.719 568.506,864.494C568.506,865.619 568.09,866.587 567.257,867.397C566.425,868.207 565.446,868.612 564.321,868.612L561.216,868.612L560.946,856.192Z" style="fill-rule:nonzero;"/>
        <path d="M604.956,861.659C604.956,866.159 604.348,868.972 603.133,870.097C602.503,870.637 601.525,870.907 600.197,870.907C598.87,870.907 597.756,869.894 596.856,867.869C597.891,865.844 598.408,858.037 598.408,844.447C598.408,841.882 598.228,838.27 597.868,833.613C597.508,828.955 597.306,825.817 597.261,824.197C595.461,821.092 592.682,813.948 588.925,802.765C585.167,791.583 583.288,784.687 583.288,782.077L583.288,781.334L586.393,779.039C589.228,779.129 592.603,786.262 596.518,800.437C598.228,806.647 599.083,809.774 599.083,809.819C599.443,808.829 600.163,805.387 601.243,799.492C603.988,784.552 606.868,777.082 609.883,777.082C610.738,777.082 611.515,777.352 612.212,777.892C612.91,778.432 613.258,779.129 613.258,779.984C613.258,785.654 611.875,792.28 609.107,799.863C606.34,807.445 604.956,814.162 604.956,820.012L604.956,861.659Z" style="fill-rule:nonzero;"/>
        <path d="M650.923,799.289L651.126,807.389L651.058,820.619C651.058,821.744 651.081,823.072 651.126,824.602C651.171,826.132 651.227,828.145 651.295,830.643C651.362,833.14 651.497,835.615 651.7,838.068C651.902,840.52 652.138,843.108 652.408,845.83C652.678,848.553 653.038,851.073 653.488,853.39C653.938,855.708 654.433,857.812 654.973,859.702C656.188,863.797 657.786,865.844 659.766,865.844C662.421,865.844 664.446,863.347 665.841,858.352C667.911,850.927 668.946,841.792 668.946,830.947L669.148,816.704C669.148,806.714 668.71,799.987 667.832,796.522C666.955,793.057 666.133,790.447 665.368,788.692C663.838,785.137 661.521,783.359 658.416,783.359C658.326,783.359 658.236,783.359 658.146,783.359C653.331,783.359 650.923,788.669 650.923,799.289ZM676.573,831.824C676.573,858.329 671.151,871.582 660.306,871.582C650.316,871.582 644.713,859.027 643.498,833.917C643.408,831.532 643.363,829.147 643.363,826.762L643.296,818.324L643.296,815.624C643.296,796.139 646.153,784.102 651.868,779.512C653.263,778.387 654.816,777.779 656.526,777.689C657.831,778.139 659.428,778.555 661.318,778.938C663.208,779.32 664.603,779.714 665.503,780.119C667.168,780.884 668.968,782.875 670.903,786.093C672.838,789.31 674.267,793.608 675.19,798.985C676.112,804.363 676.573,809.752 676.573,815.152L676.573,831.824Z" style="fill-rule:nonzero;"/>
        <path d="M698.511,814.477L699.793,786.734L699.793,785.114C703.843,785.114 706.791,785.564 708.636,786.464C713.316,786.464 715.656,785.159 715.656,782.549C715.656,779.579 711.111,777.757 702.021,777.082C700.401,776.992 698.905,776.947 697.532,776.947C696.16,776.947 694.922,777.307 693.82,778.027C692.717,778.747 692.166,779.759 692.166,781.064C692.166,785.114 691.93,791.279 691.457,799.559C690.985,807.839 690.625,819.348 690.377,834.085C690.13,848.823 689.646,860.174 688.926,868.139L692.773,871.042C695.878,871.042 697.431,868.747 697.431,864.157L697.431,825.007C699.141,825.547 700.795,825.817 702.392,825.817C703.99,825.817 705.283,825.445 706.273,824.703C707.263,823.96 707.758,822.982 707.758,821.767C707.758,819.337 705.531,818.122 701.076,818.122L698.511,818.189L698.511,814.477Z" style="fill-rule:nonzero;"/>
        <path d="M771.883,838.844C771.748,837.179 771.298,832.207 770.533,823.927C768.508,802.777 767.496,790.953 767.496,788.455C767.496,785.958 767.518,784.597 767.563,784.372C767.023,785.002 765.73,791.527 763.682,803.947C761.635,816.367 760.476,823.117 760.206,824.197C759.936,825.277 759.508,826.762 758.923,828.652C757.708,832.567 757.056,835.582 756.966,837.697C760.791,838.732 763.963,839.249 766.483,839.249C769.003,839.249 770.803,839.114 771.883,838.844ZM772.423,765.809C774.223,778.724 776.113,795.532 778.093,816.232C780.073,836.932 781.063,852.952 781.063,864.292C781.063,867.397 779.556,868.949 776.541,868.949C773.526,868.949 772.018,867.757 772.018,865.372L772.018,847.349C770.713,846.449 768.385,845.684 765.032,845.054C761.68,844.424 758.698,844.019 756.088,843.839C754.963,845.729 754.097,849.588 753.49,855.415C752.882,861.243 751.903,865.259 750.553,867.464C746.098,867.464 743.646,866.542 743.196,864.697C745.266,861.682 749.473,842.467 755.818,807.052C758.293,793.057 759.778,784.934 760.273,782.684C762.748,770.804 765.426,764.864 768.306,764.864C770.016,764.864 771.388,765.269 772.423,766.079L772.423,765.809Z" style="fill-rule:nonzero;"/>
        <path d="M813.733,802.732L814.138,787.612C814.138,783.337 813.936,780.265 813.531,778.398C813.126,776.53 812.62,774.753 812.012,773.065C811.405,771.378 811.101,770.095 811.101,769.218C811.101,768.34 811.281,767.609 811.641,767.024C812.001,766.439 812.541,765.978 813.261,765.64C813.981,765.303 814.678,765.033 815.353,764.83C816.028,764.628 816.883,764.482 817.918,764.392C819.628,764.302 820.866,764.257 821.631,764.257L822.981,764.257C826.761,764.257 830.788,766.282 835.063,770.332C840.238,775.237 843.388,780.412 844.513,785.857C845.188,789.052 845.638,792.607 845.863,796.522C846.088,800.437 846.246,803.047 846.336,804.352C846.606,807.322 846.966,809.347 847.416,810.427L847.416,816.839C846.921,817.694 846.673,819.089 846.673,821.024C846.673,827.999 845.076,835.627 841.881,843.907C838.686,852.187 834.726,858.487 830.001,862.807C826.491,866.002 824.117,867.892 822.88,868.477C821.642,869.062 820.427,869.354 819.235,869.354C818.042,869.354 816.748,868.96 815.353,868.173C813.958,867.385 813.261,866.204 813.261,864.629C815.286,862.514 816.298,857.092 816.298,848.362C816.298,843.232 815.871,835.604 815.016,825.479C814.161,815.354 813.733,807.772 813.733,802.732ZM822.913,848.092L822.913,861.322C830.068,856.282 835.086,846.899 837.966,833.174C839.406,826.154 840.126,818.887 840.126,811.372C840.126,785.497 833.736,772.559 820.956,772.559L820.956,772.694C820.956,781.244 821.271,793.9 821.901,810.663C822.531,827.425 822.868,839.902 822.913,848.092Z" style="fill-rule:nonzero;"/>
        <path d="M866.991,828.112C866.361,830.677 866.046,833.05 866.046,835.233C866.046,837.415 866.327,842.073 866.89,849.205C867.452,856.338 867.733,860.939 867.733,863.009C867.733,865.079 867.362,866.654 866.62,867.734C865.877,868.814 865.033,869.354 864.088,869.354C862.738,869.354 861.883,868.432 861.523,866.587C861.613,863.167 861.658,858.97 861.658,853.998C861.658,849.025 861.265,838.102 860.477,821.227C859.69,804.352 859.296,791.752 859.296,783.427C859.296,779.062 860.826,776.879 863.886,776.879C868.701,776.879 872.751,778.139 876.036,780.659C879.321,783.179 880.963,786.779 880.963,791.459C880.963,797.759 880.468,802.664 879.478,806.174C878.488,809.684 876.621,814.072 873.876,819.337C874.371,821.542 875.248,825.952 876.508,832.567C879.163,846.877 882.156,857.204 885.486,863.549C886.431,865.349 886.903,866.755 886.903,867.768C886.903,868.78 886.622,869.635 886.06,870.333C885.497,871.03 884.743,871.379 883.798,871.379C880.783,871.379 878.016,866.362 875.496,856.327C874.416,851.962 873.448,847.552 872.593,843.097C870.163,830.902 868.611,824.039 867.936,822.509C867.936,823.679 867.621,825.547 866.991,828.112ZM866.788,782.009L866.316,783.967C866.316,787.747 866.406,793.203 866.586,800.335C866.766,807.468 866.856,812.654 866.856,815.894C869.016,814.769 870.76,811.833 872.087,807.085C873.415,802.338 874.078,798.704 874.078,796.184C874.078,793.664 874.011,791.808 873.876,790.615C873.741,789.423 873.448,788.107 872.998,786.667C872.143,783.652 870.073,782.099 866.788,782.009Z" style="fill-rule:nonzero;"/>
        <path d="M910.528,863.819L915.996,863.482C919.506,863.482 921.261,864.607 921.261,866.857C921.261,868.252 920.653,869.264 919.438,869.894C918.223,870.524 916.851,870.839 915.321,870.839L902.293,870.839C901.123,870.839 900.122,870.434 899.29,869.624C898.457,868.814 898.007,867.779 897.94,866.519C897.872,865.259 897.962,863.684 898.21,861.794C898.457,859.904 898.581,858.397 898.581,857.272L897.906,839.587L898.851,799.222L898.108,787.544C898.108,781.019 900.043,777.757 903.913,777.757C904.993,777.757 906.006,778.094 906.951,778.769C907.311,778.814 908.177,778.893 909.55,779.005C910.922,779.118 912.126,779.264 913.161,779.444C914.196,779.624 915.321,779.872 916.536,780.187C919.146,780.907 920.451,782.144 920.451,783.899C920.451,785.789 919.101,787.229 916.401,788.219C912.171,786.779 908.683,785.902 905.938,785.587C906.073,787.567 906.141,789.547 906.141,791.527L905.533,811.372C905.533,811.462 905.668,812.182 905.938,813.532C905.938,813.532 907.581,813.464 910.866,813.329C915.321,813.329 917.548,814.589 917.548,817.109C917.548,818.459 917.155,819.652 916.367,820.687C915.58,821.722 914.466,822.239 913.026,822.239C911.586,822.239 910.326,821.834 909.246,821.024L905.736,821.024C906.006,824.534 906.141,827.864 906.141,831.014L905.533,856.057C905.533,861.232 907.198,863.819 910.528,863.819Z" style="fill-rule:nonzero;"/>
        <path d="M964.528,846.674L963.786,849.442C963.786,850.567 964.191,853.312 965.001,857.677C965.811,862.042 966.216,864.899 966.216,866.249L966.216,866.384C966.216,868.454 965.518,869.759 964.123,870.299C962.188,870.299 960.681,869.984 959.601,869.354C958.521,868.724 957.981,867.138 957.981,864.595C957.981,862.053 957.306,856.822 955.956,848.902L951.703,848.497L947.113,848.497C946.078,848.047 944.256,847.822 941.646,847.822C941.646,847.912 941.59,848.508 941.477,849.61C941.365,850.713 941.275,851.602 941.207,852.277C941.14,852.952 941.027,853.953 940.87,855.28C940.712,856.608 940.543,857.733 940.363,858.655C940.183,859.578 939.958,860.658 939.688,861.895C939.418,863.133 939.115,864.168 938.777,865C938.44,865.833 938.068,866.632 937.663,867.397C936.853,868.972 935.863,869.759 934.693,869.759C933.523,869.759 932.477,869.41 931.555,868.713C930.632,868.015 930.171,867.127 930.171,866.047C932.601,856.732 934.682,846.967 936.415,836.752C938.147,826.537 939.182,820.473 939.52,818.56C939.857,816.648 940.645,812.958 941.882,807.49C943.12,802.023 943.862,798.367 944.11,796.522C944.357,794.677 944.593,792.292 944.818,789.367C945.223,782.977 946.056,778.859 947.316,777.014L951.973,777.014C955.123,777.014 956.698,777.959 956.698,779.849C956.698,797.624 958.431,815.287 961.896,832.837C962.076,833.872 962.413,835.312 962.908,837.157C963.988,841.162 964.528,844.334 964.528,846.674ZM955.078,843.704C954.808,842.354 954.673,840.172 954.673,837.157C954.673,834.142 954.482,830.485 954.1,826.188C953.717,821.89 953.166,816.907 952.446,811.237C951.726,805.567 951.231,801.472 950.961,798.952C950.421,801.562 949.363,805.927 947.788,812.047C944.593,824.782 942.951,834.592 942.861,841.477C944.436,842.512 948.508,843.254 955.078,843.704Z" style="fill-rule:nonzero;"/>
        <path d="M985.318,863.009L985.521,867.127C985.521,868.612 985.217,869.748 984.61,870.535C984.002,871.323 983.023,871.717 981.673,871.717C980.323,871.717 979.221,871.39 978.366,870.738C977.511,870.085 977.106,869.14 977.151,867.903C977.196,866.665 977.725,855.123 978.737,833.275C979.75,811.428 980.256,794.969 980.256,783.899C980.391,781.559 980.751,779.995 981.336,779.208C981.921,778.42 982.753,777.982 983.833,777.892C984.913,777.802 985.633,777.847 985.993,778.027C986.353,778.207 986.68,778.51 986.972,778.938C987.265,779.365 987.512,779.759 987.715,780.119C987.917,780.479 988.108,781.03 988.288,781.773C988.468,782.515 988.603,783.078 988.693,783.46C988.783,783.843 988.896,784.45 989.031,785.283C989.166,786.115 989.301,786.925 989.436,787.713C989.571,788.5 990.246,791.695 991.461,797.298C992.676,802.9 994.015,810.123 995.477,818.965C996.94,827.808 998.638,839.024 1000.57,852.614C1003.41,837.449 1005.86,823.072 1007.93,809.482C1010,795.892 1011.09,788.669 1011.21,787.814C1011.32,786.959 1011.41,786.329 1011.48,785.924C1011.54,785.519 1011.67,784.912 1011.85,784.102C1012.03,783.292 1012.2,782.662 1012.35,782.212C1012.51,781.762 1012.75,781.233 1013.06,780.625C1013.38,780.018 1013.71,779.557 1014.07,779.242C1014.93,778.432 1015.94,778.027 1017.11,778.027C1018.28,778.027 1019.41,778.364 1020.49,779.039C1021.57,779.714 1022.11,780.637 1022.11,781.807C1022.11,802.957 1022.3,817.604 1022.68,825.749C1023.06,833.894 1023.25,838.799 1023.25,840.464L1023.12,862.739C1023.52,863.729 1023.73,864.775 1023.73,865.878C1023.73,866.98 1023.37,868.162 1022.65,869.422C1021.93,870.682 1020.98,871.312 1019.81,871.312C1016.93,871.312 1015.49,868.432 1015.49,862.672L1015.69,849.914C1015.69,840.959 1015.6,832.949 1015.42,825.884C1015.56,821.699 1015.63,810.764 1015.63,793.079C1014.23,801.719 1012.3,813.307 1009.82,827.842C1007.35,842.377 1006.03,850.083 1005.87,850.96C1005.72,851.838 1005.59,852.682 1005.5,853.492C1005.41,854.302 1005.32,854.999 1005.23,855.584C1005.14,856.169 1004.97,856.844 1004.73,857.609C1004.48,858.374 1004.2,859.004 1003.88,859.499C1003.12,860.714 1002.04,861.322 1000.64,861.322C997.941,861.322 996.321,859.342 995.781,855.382C995.061,849.757 993.587,839.868 991.36,825.715C989.132,811.563 987.478,802.034 986.398,797.129C985.678,828.674 985.318,850.634 985.318,863.009Z" style="fill-rule:nonzero;"/>
    </g>
</svg>
