<?xml version="1.0" encoding="UTF-8" standalone="no"?>
<!DOCTYPE svg PUBLIC "-//W3C//DTD SVG 1.1//EN" "http://www.w3.org/Graphics/SVG/1.1/DTD/svg11.dtd">
<svg width="100%" height="100%" viewBox="0 0 1920 1080" version="1.1" xmlns="http://www.w3.org/2000/svg" xmlns:xlink="http://www.w3.org/1999/xlink" xml:space="preserve" style="fill-rule:evenodd;clip-rule:evenodd;stroke-linejoin:round;stroke-miterlimit:1.41421;">
    <rect x="0" y="0" width="1920" height="1080" style="fill:rgb(51,177,204);"/>
    <g transform="matrix(0.939693,-0.34202,0.34202,0.939693,-119.6,272.867)">
        <g transform="matrix(-0.73114,0.00058428,-0.000730931,-0.914652,2369.78,805.592)">
            <path d="M1716.83,204.71C1716.83,172.37 1683.98,146.113 1643.52,146.113L1079.61,146.113C1039.16,146.113 1006.31,172.37 1006.31,204.71L1006.31,321.904C1006.31,354.244 1039.16,380.5 1079.61,380.5L1643.52,380.5C1683.98,380.5 1716.83,354.244 1716.83,321.904L1716.83,204.71Z" style="fill:rgb(132,153,102);"/>
        </g>
        <g transform="matrix(-0.000983707,-1.23096,1.15197,-0.000920578,975.134,2604.48)">
            <ellipse cx="1656.21" cy="205.934" rx="49.759" ry="53.172" style="fill:white;fill-opacity:0.847059;"/>
        </g>
        <g transform="matrix(1,-0.000799135,0.000799135,1,-475.659,132.839)">
            <g transform="matrix(0.684534,3.46945e-17,-9.71445e-17,0.833344,534.896,147.59)">
                <rect x="317.299" y="323.261" width="1157.23" height="41.004" style="fill:rgb(148,242,13);"/>
            </g>
            <g>
                <g transform="matrix(0.955844,0,0,1.0213,23.4068,-40.5569)">
                    <ellipse cx="966.128" cy="464.723" rx="94.158" ry="88.123" style="fill:rgb(148,242,13);"/>
                </g>
                <g transform="matrix(1.051,-1.051,0.918534,0.918534,-368.321,959.08)">
                    <rect x="764.451" y="416.977" width="222.023" height="26.305" style="fill:rgb(148,242,13);"/>
                </g>
                <g transform="matrix(-1.051,-1.051,0.918534,-0.918534,1471.89,1749.26)">
                    <rect x="764.451" y="416.977" width="222.023" height="26.305" style="fill:rgb(148,242,13);"/>
                </g>
                <g transform="matrix(1.0403,-0.430905,0.497107,1.20012,-177.686,295.095)">
                    <rect x="764.451" y="416.977" width="222.023" height="26.305" style="fill:rgb(148,242,13);"/>
                </g>
                <g transform="matrix(0.430905,-1.0403,1.20012,0.497107,53.4254,1130.98)">
                    <rect x="764.451" y="416.977" width="222.023" height="26.305" style="fill:rgb(148,242,13);"/>
                </g>
                <g transform="matrix(-0.430905,-1.0403,1.20012,-0.497107,807.907,1558.62)">
                    <rect x="764.451" y="416.977" width="222.023" height="26.305" style="fill:rgb(148,242,13);"/>
                </g>
                <g transform="matrix(-1.0403,-0.430905,0.497107,-1.20012,1643.79,1327.51)">
                    <rect x="764.451" y="416.977" width="222.023" height="26.305" style="fill:rgb(148,242,13);"/>
                </g>
                <g transform="matrix(8.27378e-18,-1.48633,1.299,-7.9541e-18,388.135,1735.29)">
                    <rect x="764.451" y="416.977" width="222.023" height="26.305" style="fill:rgb(148,242,13);"/>
                </g>
            </g>
        </g>
    </g>
    <g transform="matrix(1.0691,0,0,1.0691,471.015,753.567)">
        <g transform="matrix(1,0,0,1,-253.5,-194.5)">
            <g transform="matrix(0.1,0,0,-0.1,0,389)">
                <path d="M2737,3507C2675,3444 2607,3370 2585,3342C2550,3296 2542,3290 2515,3294C2499,3297 2377,3317 2245,3340C1813,3414 1692,3429 1515,3427C1380,3425 1349,3422 1320,3406C1282,3386 1230,3341 1230,3328C1230,3324 1242,3314 1258,3306C1283,3293 1284,3291 1265,3285C1209,3267 1200,3260 1200,3236C1200,3215 1212,3205 1272,3175C1322,3150 1359,3122 1394,3083C1446,3025 1483,3004 1625,2952C1724,2917 1828,2890 1875,2890C1945,2889 1894,2873 1695,2835C1590,2815 1487,2795 1464,2791C1442,2787 1413,2787 1399,2792C1386,2797 1339,2798 1294,2795C1224,2789 1200,2792 1114,2815C936,2863 808,2911 751,2949C642,3022 613,3035 585,3022C562,3011 561,3008 571,2988C596,2941 671,2899 820,2848C947,2805 1325,2711 1350,2717C1353,2718 1391,2721 1435,2725C1544,2734 1730,2773 1908,2823C1989,2845 2073,2864 2095,2863C2117,2862 2223,2852 2330,2841C2437,2829 2590,2813 2670,2805C2851,2786 2893,2781 2896,2778C2897,2776 2896,2763 2893,2749C2889,2728 2884,2724 2866,2727C2833,2734 2806,2694 2785,2609L2767,2537L2706,2543C2623,2551 2449,2597 2250,2664C2154,2696 2077,2717 2065,2714C2054,2711 2020,2697 1990,2683C1960,2669 1903,2642 1864,2624C1825,2606 1726,2560 1644,2522C1321,2371 1248,2339 1180,2314C1142,2300 1068,2265 1017,2236C860,2146 622,2025 445,1945C352,1903 256,1857 232,1843C194,1821 189,1815 192,1787C194,1762 200,1754 218,1752C247,1748 318,1782 380,1831C434,1873 903,2114 1021,2160C1062,2176 1206,2241 1341,2306C1475,2370 1650,2454 1730,2492C1810,2530 1915,2580 1963,2603L2052,2644L2133,2622C2370,2557 2568,2511 2652,2499C2703,2492 2746,2486 2748,2485C2749,2484 2735,2423 2716,2349C2696,2275 2624,1997 2555,1730C2322,829 2239,506 2199,354C2152,173 2151,160 2185,160C2205,160 2211,167 2219,198C2224,218 2256,345 2290,480C2440,1077 2811,2464 2825,2478C2841,2495 2840,2457 2821,2343C2710,1701 2693,1529 2725,1364C2740,1286 2766,1240 2789,1254C2806,1265 2802,1305 2776,1408C2763,1459 2753,1513 2755,1528C2757,1543 2761,1589 2765,1630C2776,1772 2850,2223 2890,2395C2899,2433 2921,2460 2945,2460C2951,2460 2962,2441 2970,2418C2978,2395 2991,2375 2997,2372C3004,2370 3024,2382 3040,2399C3065,2424 3075,2428 3094,2420C3112,2413 3116,2406 3113,2386C3106,2351 3126,2330 3165,2330C3196,2330 3240,2358 3387,2474C3409,2491 3412,2491 3429,2476C3439,2467 3454,2460 3463,2460C3472,2460 3480,2458 3480,2455C3480,2452 3413,2367 3332,2265L3184,2080L3161,1963C3031,1303 2985,1000 3004,926C3011,898 3042,890 3057,913C3061,919 3065,961 3066,1005C3070,1136 3117,1433 3214,1937C3228,2014 3257,2070 3329,2165C3394,2251 3510,2390 3517,2390C3520,2390 3518,2384 3512,2378C3498,2360 3495,2331 3503,2295C3507,2277 3497,2184 3477,2058C3439,1818 3435,1839 3535,1670C3801,1220 4084,912 4303,834C4337,822 4340,822 4340,839C4340,850 4314,874 4271,903C4194,954 4055,1063 3997,1119C3922,1189 3600,1647 3531,1781L3497,1845L3529,2030C3547,2132 3563,2217 3565,2219C3567,2221 3580,2220 3593,2216C3610,2212 3631,2187 3661,2138C3684,2098 3755,2009 3818,1940C3960,1786 4008,1723 4195,1445C4276,1324 4345,1223 4346,1221C4348,1220 4354,1220 4360,1222C4378,1228 4273,1428 4172,1580C4123,1654 4012,1798 3927,1900C3838,2005 3776,2087 3783,2089C3809,2098 3807,2116 3777,2171C3727,2262 3742,2264 3915,2186C4032,2134 4103,2092 4268,1980C4433,1868 4476,1843 4479,1857C4481,1866 4477,1876 4472,1878C4466,1880 4429,1908 4390,1941C4268,2043 4110,2141 3908,2241C3848,2271 3800,2300 3800,2307C3800,2327 3835,2345 3980,2398C4304,2518 4580,2648 4580,2681C4580,2698 4553,2690 4454,2641C4320,2574 4164,2511 3973,2446L3814,2392L3812,2422C3809,2465 3785,2516 3755,2546C3710,2591 3731,2633 3883,2803C3964,2893 3974,2920 3925,2920C3894,2920 3836,2892 3758,2839C3727,2817 3699,2800 3696,2800C3692,2800 3690,2809 3690,2819C3690,2854 3653,2924 3592,3007C3523,3100 3491,3120 3347,3165C3269,3190 3255,3191 3214,3181C3188,3174 3166,3171 3163,3173C3161,3175 3166,3230 3175,3294C3200,3489 3195,3540 3147,3540C3123,3540 3089,3466 3048,3317C3019,3215 3012,3200 2995,3202C2979,3205 2975,3214 2973,3265C2968,3371 2950,3528 2938,3562C2922,3609 2911,3620 2878,3620C2854,3620 2829,3600 2737,3507ZM2899,3455C2922,3270 2924,3220 2909,3220C2881,3220 2635,3273 2626,3281C2621,3286 2642,3318 2676,3357C2761,3453 2873,3561 2881,3552C2885,3548 2893,3505 2899,3455Z" style="fill-rule:nonzero;"/>
            </g>
        </g>
    </g>
</svg>
