<?xml version="1.0" encoding="UTF-8" standalone="no"?>
<!DOCTYPE svg PUBLIC "-//W3C//DTD SVG 1.1//EN" "http://www.w3.org/Graphics/SVG/1.1/DTD/svg11.dtd">
<svg width="100%" height="100%" viewBox="0 0 1920 1080" version="1.1" xmlns="http://www.w3.org/2000/svg" xmlns:xlink="http://www.w3.org/1999/xlink" xml:space="preserve" style="fill-rule:evenodd;clip-rule:evenodd;stroke-linejoin:round;stroke-miterlimit:1.41421;">
    <rect x="0" y="0" width="1920" height="1080" style="fill:rgb(64,191,169);"/>
    <g transform="matrix(0.274428,0,0,0.274428,1440,540)">
        <g transform="matrix(1,0,0,1,-1002.08,-270.833)">
            <g transform="matrix(4.16667,0,0,4.16667,0,0)">
                <path d="M92.497,55.713L52.14,55.713C51.099,55.713 50.254,56.558 50.254,57.6L50.254,77.33C50.254,78.371 51.099,79.219 52.14,79.219L67.883,79.219L67.883,103.732C67.883,103.732 64.348,104.937 54.576,104.937C43.045,104.937 26.939,100.724 26.939,65.306C26.939,29.881 43.71,25.22 59.457,25.22C73.086,25.22 78.959,27.619 82.695,28.776C83.869,29.135 84.955,27.966 84.955,26.925L89.457,7.861C89.457,7.373 89.292,6.786 88.736,6.388C87.218,5.305 77.961,0.125 54.576,0.125C27.634,0.125 0,11.587 0,66.687C0,121.789 31.639,130 58.301,130C80.377,130 93.77,120.566 93.77,120.566C94.322,120.261 94.381,119.49 94.381,119.136L94.381,57.6C94.381,56.558 93.538,55.713 92.497,55.713Z" style="fill:rgb(14,13,13);fill-rule:nonzero;"/>
                <path d="M300.475,6.728C300.475,5.678 299.643,4.831 298.602,4.831L275.879,4.831C274.841,4.831 273.997,5.678 273.997,6.728C273.997,6.732 274.003,50.64 274.003,50.64L238.584,50.64L238.584,6.728C238.584,5.678 237.748,4.831 236.709,4.831L213.987,4.831C212.953,4.831 212.11,5.678 212.11,6.728L212.11,125.63C212.11,126.679 212.953,127.533 213.987,127.533L236.709,127.533C237.748,127.533 238.584,126.679 238.584,125.63L238.584,74.771L274.003,74.771C274.003,74.771 273.941,125.626 273.941,125.63C273.941,126.679 274.784,127.533 275.823,127.533L298.6,127.533C299.641,127.533 300.473,126.679 300.475,125.63L300.475,6.728Z" style="fill:rgb(14,13,13);fill-rule:nonzero;"/>
                <path d="M135.376,22.33C135.376,14.148 128.815,7.537 120.723,7.537C112.638,7.537 106.073,14.148 106.073,22.33C106.073,30.504 112.638,37.134 120.723,37.134C128.815,37.134 135.376,30.504 135.376,22.33Z" style="fill:rgb(14,13,13);fill-rule:nonzero;"/>
                <path d="M133.751,100.548C133.751,97.502 133.751,45.663 133.751,45.663C133.751,44.621 132.91,43.769 131.871,43.769L109.22,43.769C108.181,43.769 107.251,44.84 107.251,45.882C107.251,45.882 107.251,111.927 107.251,124.517C107.251,126.828 108.691,127.515 110.555,127.515C110.555,127.515 120.223,127.515 130.963,127.515C133.202,127.515 133.751,126.416 133.751,124.48C133.751,120.265 133.751,103.753 133.751,100.548Z" style="fill:rgb(14,13,13);fill-rule:nonzero;"/>
                <path d="M386.832,43.947L364.283,43.947C363.249,43.947 362.407,44.8 362.407,45.849L362.407,104.15C362.407,104.15 356.679,108.341 348.548,108.341C340.418,108.341 338.26,104.652 338.26,96.691C338.26,88.721 338.26,45.849 338.26,45.849C338.26,44.8 337.42,43.947 336.385,43.947L313.5,43.947C312.467,43.947 311.621,44.8 311.621,45.849C311.621,45.849 311.621,76.896 311.621,100.541C311.621,124.187 324.8,129.972 342.93,129.972C357.803,129.972 369.795,121.755 369.795,121.755C369.795,121.755 370.366,126.085 370.624,126.599C370.883,127.111 371.556,127.628 372.283,127.628L386.842,127.564C387.875,127.564 388.721,126.71 388.721,125.666L388.714,45.849C388.714,44.8 387.871,43.947 386.832,43.947Z" style="fill:rgb(14,13,13);fill-rule:nonzero;"/>
                <path d="M439.567,108.269C431.746,108.031 426.441,104.482 426.441,104.482L426.441,66.828C426.441,66.828 431.675,63.621 438.096,63.047C446.216,62.32 454.04,64.773 454.04,84.143C454.04,104.568 450.509,108.599 439.567,108.269ZM448.461,41.276C435.654,41.276 426.943,46.99 426.943,46.99L426.943,6.728C426.943,5.678 426.104,4.831 425.068,4.831L402.281,4.831C401.245,4.831 400.403,5.678 400.403,6.728L400.403,125.63C400.403,126.679 401.245,127.533 402.284,127.533C402.286,127.533 418.089,127.533 418.094,127.533C418.806,127.533 419.345,127.166 419.743,126.523C420.136,125.884 420.703,121.041 420.703,121.041C420.703,121.041 430.021,129.871 447.66,129.871C468.368,129.871 480.244,119.367 480.244,82.717C480.244,46.066 461.277,41.276 448.461,41.276Z" style="fill:rgb(14,13,13);fill-rule:nonzero;"/>
                <path d="M199.058,43.758L182.013,43.758C182.013,43.758 181.987,21.245 181.987,21.24C181.987,20.387 181.548,19.961 180.563,19.961L157.335,19.961C156.432,19.961 155.947,20.359 155.947,21.227L155.947,44.496C155.947,44.496 144.307,47.306 143.52,47.533C142.736,47.761 142.159,48.483 142.159,49.346L142.159,63.968C142.159,65.02 142.999,65.868 144.038,65.868L155.947,65.868C155.947,65.868 155.947,81.162 155.947,101.046C155.947,127.175 174.275,129.743 186.643,129.743C192.294,129.743 199.054,127.927 200.17,127.515C200.845,127.267 201.237,126.568 201.237,125.81L201.256,109.724C201.256,108.675 200.37,107.826 199.372,107.826C198.379,107.826 195.838,108.23 193.222,108.23C184.85,108.23 182.013,104.337 182.013,99.299C182.013,94.264 182.012,65.868 182.012,65.868L199.058,65.868C200.097,65.868 200.938,65.02 200.938,63.968L200.938,45.652C200.938,44.603 200.097,43.758 199.058,43.758Z" style="fill:rgb(14,13,13);fill-rule:nonzero;"/>
            </g>
        </g>
    </g>
    <g transform="matrix(0.632219,0,0,0.632219,480,540)">
        <g transform="matrix(1,0,0,1,-480,-244.5)">
            <clipPath id="_clip1">
                <rect x="0" y="0" width="960" height="489"/>
            </clipPath>
            <g clip-path="url(#_clip1)">
                <g>
                    <g id="logo-bg-dark">
                        <rect id="bg" x="0" y="0" width="960" height="490" style="fill:none;"/>
                        <g id="test-tube">
                            <path id="shadow_2_" d="M802.411,80.363C802.26,80.97 802.256,81.622 802.384,82.311C802.384,82.311 804.449,96.019 802.105,102.12L702.43,361.291L702.438,361.294C695.325,380.33 704.857,401.583 723.867,408.895C742.876,416.206 764.192,406.816 771.668,387.919L771.677,387.923L871.352,128.751C873.301,123.681 884.416,113.859 884.416,113.859C884.974,113.434 885.406,112.946 885.701,112.395L885.75,112.294C885.804,112.186 885.866,112.082 885.909,111.969C888.479,105.286 871.901,92.69 848.881,83.837C825.86,74.983 805.114,73.224 802.544,79.907C802.5,80.02 802.476,80.138 802.443,80.255L802.411,80.363Z" style="fill-opacity:0.3;fill-rule:nonzero;"/>
                            <path id="tube_2_" d="M799.53,78.16C799.378,78.767 799.374,79.419 799.503,80.108C799.503,80.108 801.568,93.816 799.223,99.917L699.548,359.088L699.557,359.091C692.444,378.127 701.976,399.38 720.986,406.692C739.994,414.003 761.311,404.613 768.787,385.716L768.796,385.72L868.471,126.548C870.419,121.478 881.535,111.656 881.535,111.656C882.093,111.231 882.525,110.744 882.82,110.192L882.868,110.091C882.922,109.983 882.984,109.879 883.027,109.766C885.597,103.083 869.019,90.487 846,81.634C822.979,72.78 802.233,71.021 799.663,77.704C799.619,77.817 799.595,77.935 799.562,78.052L799.53,78.16Z" style="fill:url(#_Linear2);fill-rule:nonzero;"/>
                            <path id="liquid" d="M830.797,195.407L758.917,382.307L758.964,382.325C753.662,395.721 738.235,402.69 724.548,397.427C710.861,392.164 703.454,376.412 708.495,362.915L754.425,243.489C754.425,243.489 760.161,234.236 771.424,227.653C782.687,221.07 791.975,222.46 804.482,216.901C816.987,211.341 830.797,195.407 830.797,195.407Z" style="fill:rgb(179,148,77);fill-rule:nonzero;"/>
                            <g id="top" transform="matrix(0.9334,0.359,-0.359,0.9334,89.9472,-295.63)">
                                <ellipse cx="841.085" cy="94.407" rx="27.717" ry="7.29" style="fill:rgb(51,51,51);"/>
                            </g>
                            <path id="side-reflection" d="M799.503,80.107C799.503,80.107 801.538,93.894 799.223,99.916L699.548,359.087L699.557,359.09C692.444,378.126 701.976,399.379 720.986,406.691C724.285,407.96 727.652,408.713 731.006,409.015C718.193,399.375 712.694,382.135 718.573,366.404L718.564,366.401L816.261,112.37C816.261,112.371 802.962,99.884 799.503,80.107Z" style="fill:white;fill-opacity:0.3;fill-rule:nonzero;"/>
                            <g id="bubbles">
                                <circle cx="767.412" cy="247.294" r="2.888" style="fill:white;fill-opacity:0.5;"/>
                                <circle cx="786.344" cy="268.235" r="4.354" style="fill:white;fill-opacity:0.5;"/>
                                <circle cx="757.443" cy="293.138" r="8.167" style="fill:white;fill-opacity:0.5;"/>
                                <circle cx="744.219" cy="308.241" r="4.354" style="fill:white;fill-opacity:0.5;"/>
                                <circle cx="761.563" cy="340.542" r="2.888" style="fill:white;fill-opacity:0.5;"/>
                            </g>
                        </g>
                        <g id="jekyll-text">
                            <path d="M253.384,231.366C257.799,234.894 265.745,232.836 271.043,226.955C276.635,220.78 277.518,212.84 273.104,209.311C268.688,205.782 260.742,207.841 255.444,214.016C249.852,220.191 248.969,227.837 253.384,231.366ZM240.434,242.835C239.257,242.835 237.197,244.893 238.962,245.775C241.316,246.657 242.494,248.714 242.494,251.656C240.434,263.713 225.424,277.533 219.537,282.238C218.065,283.709 220.126,286.943 221.597,285.767C224.835,283.121 231.604,277.827 237.197,270.769C228.073,291.06 210.413,317.231 203.644,326.347C177.156,363.104 136.833,396.921 109.167,396.921C87.093,396.921 68.256,381.924 64.136,359.869C63.842,357.516 60.604,356.929 61.193,360.163C66.196,390.452 89.448,402.214 117.703,402.214C148.607,402.214 184.881,379.822 204.829,356.908C237.108,319.83 258.094,277.238 252.502,253.126C250.147,244.011 243.966,242.54 240.434,242.835ZM439.013,323.465C447.548,321.406 454.612,316.63 454.612,309.243C454.612,308.505 453.14,308.505 453.14,309.243C453.14,313.676 448.137,317.29 442.545,318.172C429.3,320.231 403.106,304.698 390.744,288.818C403.989,293.818 431.066,286.493 443.722,277.377C455.495,268.85 460.204,259.453 461.087,251.808C462.558,239.162 448.725,231.819 429.594,239.17C417.233,244.169 402.517,255.052 387.212,275.342C403.4,248.583 435.186,205.063 466.384,177.128C504.351,143.311 526.426,149.781 492.284,185.657C478.157,200.36 451.668,219.474 433.42,227.708C427.828,230.061 430.477,233.295 434.597,231.531C454.022,223.003 479.923,205.36 495.521,190.656C541.73,146.253 503.173,112.73 451.962,159.78C417.232,191.833 394.569,225.355 374.85,268.876C368.08,277.109 363.077,283.873 356.896,289.166C356.167,289.81 355.583,290.437 355.102,291.036C338.105,305.601 311.424,325.264 294.844,325.5C283.071,325.794 278.068,316.973 280.128,305.504C283.365,287.566 301.908,266.394 317.801,259.043C338.404,249.633 350.47,267.864 323.393,282.567C313.091,287.86 300.73,290.8 295.726,290.8C289.839,290.8 290.428,293.153 295.432,293.446C303.673,293.74 316.918,290.212 325.747,286.094C353.413,272.862 355.179,248.16 325.158,247.279C292.489,246.102 253.344,274.038 253.638,309.031C253.932,324.911 266.588,333.438 283.953,333.438C312.831,333.176 338.661,311.158 359.78,291.794C362.812,289.273 365.741,286.501 368.668,283.577C361.31,302.396 357.484,319.746 359.25,332.685C360.428,342.095 365.726,346.505 369.846,350.035C370.729,350.623 372.495,350.035 371.317,348.27C365.136,340.918 366.902,319.104 375.438,297.932C382.503,312.05 410.169,329.935 439.013,323.465ZM404.283,262.112C438.13,231.824 451.374,258.878 429.889,275.344C418.704,283.872 396.63,290.342 389.567,286.225L388.095,285.343C387.212,283.872 386.329,282.402 385.741,280.932C391.333,274.169 397.808,267.994 404.283,262.112ZM592.137,227.791C605.676,229.262 600.083,212.794 586.251,216.911C580.07,218.675 574.184,230.437 569.769,240.73C556.23,261.02 533.567,288.662 517.674,303.071C503.546,315.127 490.596,318.362 506.489,295.718C512.964,286.603 521.205,276.899 525.915,267.195C537.099,242.788 513.259,231.908 494.128,246.611C482.944,255.138 467.934,272.782 456.161,282.486C452.923,285.132 453.806,288.956 457.044,286.309C466.461,278.663 482.944,261.314 497.071,251.022C508.843,241.906 513.553,247.787 506.783,255.432C497.365,266.313 480.883,285.132 476.763,297.189C470.876,315.127 477.94,323.066 489.713,323.066C505.901,323.066 530.035,297.777 546.223,277.781C551.521,271.018 557.408,263.078 562.411,255.432C548.284,282.78 533.567,310.421 515.32,335.416C489.42,370.704 457.045,397.169 426.435,397.169C404.361,397.169 385.23,382.172 381.109,360.118C380.815,357.764 377.872,357.177 378.166,360.411C383.169,390.7 406.421,402.462 434.676,402.462C465.58,402.462 495.306,384.524 516.203,362.47C558.291,318.067 563.294,268.077 576.245,240.141C582.13,227.791 587.722,227.203 592.137,227.791ZM763.227,184.976C769.408,174.39 769.114,166.156 754.693,166.156C743.802,166.45 724.083,174.095 714.959,181.153C712.898,183.212 713.781,184.388 716.431,183.212C718.197,182.624 720.257,181.447 722.318,180.566C732.619,174.979 728.499,186.741 726.143,191.152C713.782,212.618 692.002,242.906 680.524,257.903C675.025,265.287 668.825,272.662 662.857,278.932C651.803,289.417 629.974,307.994 613.457,314.245C559.891,334.241 628.173,243.083 633.766,235.731C646.421,219.851 674.677,192.21 683.211,178.389C689.393,167.803 689.098,159.569 674.677,159.569C663.786,159.863 644.068,167.508 634.944,174.566C632.883,176.625 633.766,177.8 636.415,176.625C638.182,176.037 640.241,174.86 642.302,173.979C652.603,168.392 648.483,180.154 646.128,184.565C633.767,206.031 611.986,236.32 600.508,251.317C591.09,263.962 579.612,276.606 570.781,283.664C567.25,286.604 569.309,289.251 572.842,286.898C576.079,284.839 580.788,280.134 586.086,274.547C576.374,293.955 568.427,321.303 594.033,324.537C615.853,327.52 641.797,305.252 658.573,288.759C660.422,287.009 662.45,284.953 664.593,282.717C665.097,282.202 665.59,281.698 666.066,281.21C656.371,300.613 648.479,327.894 674.05,331.124C702.011,334.946 736.741,297.307 750.279,283.485C752.928,280.839 752.045,276.428 747.631,280.839C739.684,289.073 712.901,313.48 693.476,320.832C639.91,340.827 708.192,249.669 713.784,242.317C726.437,226.438 754.692,198.796 763.227,184.976Z" style="fill-opacity:0.3;fill-rule:nonzero;"/>
                            <g>
                                <path d="M250.558,228.539C254.973,232.068 262.919,230.01 268.217,224.128C273.809,217.953 274.692,210.013 270.278,206.484C265.863,202.955 257.916,205.014 252.618,211.189C247.025,217.365 246.143,225.011 250.558,228.539ZM237.607,240.008C236.43,240.008 234.37,242.067 236.135,242.948C238.489,243.83 239.667,245.888 239.667,248.83C237.607,260.886 222.597,274.707 216.71,279.412C215.238,280.882 217.299,284.117 218.77,282.94C222.008,280.294 228.777,275.001 234.37,267.943C225.246,288.233 207.586,314.405 200.817,323.52C174.329,360.278 134.006,394.094 106.34,394.094C84.266,394.094 65.429,379.098 61.309,357.043C61.015,354.689 57.777,354.103 58.366,357.337C63.369,387.625 86.621,399.387 114.876,399.387C145.78,399.387 182.054,376.995 202.002,354.081C234.281,317.003 255.267,274.412 249.675,250.299C247.32,241.184 241.14,239.714 237.607,240.008ZM436.186,320.639C444.721,318.58 451.785,313.804 451.785,306.417C451.785,305.678 450.313,305.678 450.313,306.417C450.313,310.849 445.31,314.463 439.718,315.345C426.473,317.404 400.279,301.872 387.917,285.992C401.162,290.991 428.239,283.666 440.895,274.551C452.668,266.023 457.377,256.626 458.26,248.981C459.731,236.336 445.898,228.992 426.767,236.343C414.406,241.342 399.69,252.226 384.385,272.516C400.573,245.756 432.359,202.237 463.557,174.301C501.524,140.484 523.599,146.954 489.458,182.83C475.33,197.533 448.841,216.647 430.593,224.881C425.001,227.234 427.65,230.468 431.77,228.703C451.196,220.176 477.096,202.532 492.695,187.829C538.903,143.426 500.347,109.903 449.135,156.953C414.405,189.006 391.742,222.528 372.023,266.05C365.253,274.283 360.25,281.047 354.069,286.34C353.34,286.983 352.756,287.61 352.275,288.209C335.278,302.775 308.598,322.437 292.017,322.674C280.244,322.968 275.241,314.146 277.301,302.678C280.538,284.74 299.081,263.568 314.974,256.216C335.577,246.806 347.643,265.037 320.566,279.74C310.265,285.034 297.903,287.974 292.9,287.974C287.014,287.974 287.602,290.327 292.606,290.62C300.847,290.914 314.092,287.385 322.921,283.267C350.587,270.035 352.353,245.333 322.332,244.452C289.662,243.276 250.518,271.212 250.812,306.205C251.106,322.084 263.762,330.612 281.127,330.612C310.005,330.349 335.835,308.331 356.953,288.968C359.985,286.446 362.914,283.675 365.841,280.75C358.483,299.57 354.657,316.92 356.423,329.858C357.601,339.268 362.899,343.679 367.019,347.208C367.902,347.796 369.668,347.208 368.49,345.444C362.309,338.092 364.075,316.278 372.611,295.106C379.676,309.223 407.343,327.107 436.186,320.639ZM401.457,259.286C435.304,228.998 448.548,256.052 427.063,272.518C415.879,281.046 393.805,287.515 386.741,283.398L385.269,282.516C384.386,281.046 383.503,279.576 382.915,278.106C388.506,271.343 394.981,265.167 401.457,259.286ZM589.311,224.965C602.849,226.435 597.257,209.967 583.424,214.085C577.243,215.849 571.357,227.612 566.942,237.904C553.404,258.194 530.741,285.836 514.847,300.245C500.72,312.302 487.77,315.536 503.663,292.893C510.138,283.777 518.379,274.073 523.088,264.37C534.272,239.963 510.432,229.083 491.301,243.786C480.117,252.313 465.107,269.957 453.334,279.661C450.096,282.307 450.979,286.13 454.217,283.483C463.635,275.837 480.117,258.488 494.244,248.196C506.017,239.08 510.726,244.962 503.957,252.607C494.539,263.487 478.057,282.307 473.936,294.364C468.049,312.302 475.113,320.241 486.885,320.241C503.073,320.241 527.207,294.952 543.395,274.956C548.693,268.192 554.58,260.253 559.583,252.607C545.455,279.955 530.739,307.596 512.491,332.591C486.592,367.878 454.216,394.343 423.606,394.343C401.532,394.343 382.401,379.347 378.281,357.292C377.986,354.939 375.043,354.352 375.337,357.586C380.34,387.874 403.592,399.636 431.847,399.636C462.751,399.636 492.477,381.698 513.374,359.645C555.462,315.242 560.466,265.251 573.416,237.316C579.303,224.965 584.896,224.376 589.311,224.965ZM760.4,182.149C766.581,171.563 766.286,163.329 751.865,163.329C740.975,163.623 721.256,171.268 712.132,178.326C710.071,180.385 710.954,181.561 713.604,180.385C715.37,179.797 717.43,178.621 719.49,177.739C729.792,172.152 725.672,183.914 723.316,188.325C710.955,209.791 689.174,240.08 677.696,255.077C672.197,262.46 665.997,269.835 660.029,276.106C648.976,286.591 627.146,305.168 610.63,311.419C557.063,331.415 625.346,240.256 630.938,232.904C643.594,217.025 671.849,189.383 680.384,175.562C686.565,164.976 686.27,156.742 671.849,156.742C660.959,157.036 641.24,164.681 632.116,171.739C630.055,173.798 630.938,174.973 633.588,173.798C635.354,173.21 637.414,172.033 639.475,171.152C649.776,165.565 645.656,177.327 643.3,181.738C630.939,203.204 609.158,233.492 597.681,248.489C588.263,261.134 576.784,273.778 567.953,280.836C564.422,283.776 566.482,286.424 570.015,284.071C573.252,282.011 577.961,277.307 583.259,271.719C573.546,291.127 565.6,318.475 591.205,321.71C613.025,324.692 638.969,302.424 655.746,285.932C657.595,284.181 659.623,282.126 661.766,279.89C662.27,279.374 662.762,278.871 663.238,278.382C653.543,297.786 645.651,325.066 671.223,328.296C699.184,332.118 733.913,294.479 747.452,280.658C750.1,278.012 749.218,273.6 744.803,278.012C736.857,286.245 710.074,310.653 690.649,318.004C637.082,337.999 705.365,246.841 710.957,239.489C723.61,223.611 751.865,195.97 760.4,182.149Z" style="fill:url(#_Linear3);fill-rule:nonzero;"/>
                                <path d="M250.558,228.539C254.973,232.068 262.919,230.01 268.217,224.128C273.809,217.953 274.692,210.013 270.278,206.484C265.863,202.955 257.916,205.014 252.618,211.189C247.025,217.365 246.143,225.011 250.558,228.539ZM237.607,240.008C236.43,240.008 234.37,242.067 236.135,242.948C238.489,243.83 239.667,245.888 239.667,248.83C237.607,260.886 222.597,274.707 216.71,279.412C215.238,280.882 217.299,284.117 218.77,282.94C222.008,280.294 228.777,275.001 234.37,267.943C225.246,288.233 207.586,314.405 200.817,323.52C174.329,360.278 134.006,394.094 106.34,394.094C84.266,394.094 65.429,379.098 61.309,357.043C61.015,354.689 57.777,354.103 58.366,357.337C63.369,387.625 86.621,399.387 114.876,399.387C145.78,399.387 182.054,376.995 202.002,354.081C234.281,317.003 255.267,274.412 249.675,250.299C247.32,241.184 241.14,239.714 237.607,240.008ZM436.186,320.639C444.721,318.58 451.785,313.804 451.785,306.417C451.785,305.678 450.313,305.678 450.313,306.417C450.313,310.849 445.31,314.463 439.718,315.345C426.473,317.404 400.279,301.872 387.917,285.992C401.162,290.991 428.239,283.666 440.895,274.551C452.668,266.023 457.377,256.626 458.26,248.981C459.731,236.336 445.898,228.992 426.767,236.343C414.406,241.342 399.69,252.226 384.385,272.516C400.573,245.756 432.359,202.237 463.557,174.301C501.524,140.484 523.599,146.954 489.458,182.83C475.33,197.533 448.841,216.647 430.593,224.881C425.001,227.234 427.65,230.468 431.77,228.703C451.196,220.176 477.096,202.532 492.695,187.829C538.903,143.426 500.347,109.903 449.135,156.953C414.405,189.006 391.742,222.528 372.023,266.05C365.253,274.283 360.25,281.047 354.069,286.34C353.34,286.983 352.756,287.61 352.275,288.209C335.278,302.775 308.598,322.437 292.017,322.674C280.244,322.968 275.241,314.146 277.301,302.678C280.538,284.74 299.081,263.568 314.974,256.216C335.577,246.806 347.643,265.037 320.566,279.74C310.265,285.034 297.903,287.974 292.9,287.974C287.014,287.974 287.602,290.327 292.606,290.62C300.847,290.914 314.092,287.385 322.921,283.267C350.587,270.035 352.353,245.333 322.332,244.452C289.662,243.276 250.518,271.212 250.812,306.205C251.106,322.084 263.762,330.612 281.127,330.612C310.005,330.349 335.835,308.331 356.953,288.968C359.985,286.446 362.914,283.675 365.841,280.75C358.483,299.57 354.657,316.92 356.423,329.858C357.601,339.268 362.899,343.679 367.019,347.208C367.902,347.796 369.668,347.208 368.49,345.444C362.309,338.092 364.075,316.278 372.611,295.106C379.676,309.223 407.343,327.107 436.186,320.639ZM401.457,259.286C435.304,228.998 448.548,256.052 427.063,272.518C415.879,281.046 393.805,287.515 386.741,283.398L385.269,282.516C384.386,281.046 383.503,279.576 382.915,278.106C388.506,271.343 394.981,265.167 401.457,259.286ZM589.311,224.965C602.849,226.435 597.257,209.967 583.424,214.085C577.243,215.849 571.357,227.612 566.942,237.904C553.404,258.194 530.741,285.836 514.847,300.245C500.72,312.302 487.77,315.536 503.663,292.893C510.138,283.777 518.379,274.073 523.088,264.37C534.272,239.963 510.432,229.083 491.301,243.786C480.117,252.313 465.107,269.957 453.334,279.661C450.096,282.307 450.979,286.13 454.217,283.483C463.635,275.837 480.117,258.488 494.244,248.196C506.017,239.08 510.726,244.962 503.957,252.607C494.539,263.487 478.057,282.307 473.936,294.364C468.049,312.302 475.113,320.241 486.885,320.241C503.073,320.241 527.207,294.952 543.395,274.956C548.693,268.192 554.58,260.253 559.583,252.607C545.455,279.955 530.739,307.596 512.491,332.591C486.592,367.878 454.216,394.343 423.606,394.343C401.532,394.343 382.401,379.347 378.281,357.292C377.986,354.939 375.043,354.352 375.337,357.586C380.34,387.874 403.592,399.636 431.847,399.636C462.751,399.636 492.477,381.698 513.374,359.645C555.462,315.242 560.466,265.251 573.416,237.316C579.303,224.965 584.896,224.376 589.311,224.965ZM760.4,182.149C766.581,171.563 766.286,163.329 751.865,163.329C740.975,163.623 721.256,171.268 712.132,178.326C710.071,180.385 710.954,181.561 713.604,180.385C715.37,179.797 717.43,178.621 719.49,177.739C729.792,172.152 725.672,183.914 723.316,188.325C710.955,209.791 689.174,240.08 677.696,255.077C672.197,262.46 665.997,269.835 660.029,276.106C648.976,286.591 627.146,305.168 610.63,311.419C557.063,331.415 625.346,240.256 630.938,232.904C643.594,217.025 671.849,189.383 680.384,175.562C686.565,164.976 686.27,156.742 671.849,156.742C660.959,157.036 641.24,164.681 632.116,171.739C630.055,173.798 630.938,174.973 633.588,173.798C635.354,173.21 637.414,172.033 639.475,171.152C649.776,165.565 645.656,177.327 643.3,181.738C630.939,203.204 609.158,233.492 597.681,248.489C588.263,261.134 576.784,273.778 567.953,280.836C564.422,283.776 566.482,286.424 570.015,284.071C573.252,282.011 577.961,277.307 583.259,271.719C573.546,291.127 565.6,318.475 591.205,321.71C613.025,324.692 638.969,302.424 655.746,285.932C657.595,284.181 659.623,282.126 661.766,279.89C662.27,279.374 662.762,278.871 663.238,278.382C653.543,297.786 645.651,325.066 671.223,328.296C699.184,332.118 733.913,294.479 747.452,280.658C750.1,278.012 749.218,273.6 744.803,278.012C736.857,286.245 710.074,310.653 690.649,318.004C637.082,337.999 705.365,246.841 710.957,239.489C723.61,223.611 751.865,195.97 760.4,182.149Z" style="fill:white;fill-opacity:0.75;fill-rule:nonzero;"/>
                            </g>
                            <g id="highlight">
                                <g>
                                    <path d="M661.764,281.891C661.624,282.037 661.49,282.174 661.352,282.318C657.156,291.461 653.76,301.763 654.032,310.331C654.327,300.898 658.566,289.73 663.236,280.384C662.76,280.872 662.268,281.375 661.764,281.891Z" style="fill:white;fill-rule:nonzero;"/>
                                    <path d="M581.332,275.736C577.136,284.878 573.741,295.181 574.014,303.748C574.309,294.289 578.572,283.083 583.257,273.72C582.605,274.407 581.964,275.08 581.332,275.736Z" style="fill:white;fill-rule:nonzero;"/>
                                    <path d="M711.666,180.841C711.802,180.675 711.951,180.506 712.132,180.325C721.256,173.268 740.976,165.622 751.865,165.328C760.094,165.328 763.719,168.012 764.169,172.282C764.699,166.865 761.316,163.328 751.865,163.328C740.975,163.622 721.256,171.267 712.132,178.325C710.719,179.738 710.69,180.734 711.666,180.841Z" style="fill:white;fill-rule:nonzero;"/>
                                    <path d="M744.801,278.013C736.855,286.246 710.072,310.654 690.647,318.005C676.442,323.308 670.807,320.792 670.297,314.098C669.835,322.244 675.109,325.805 690.647,320.005C710.072,312.653 736.855,288.246 744.801,280.013C746.948,277.867 748.253,277.817 748.73,278.627C749.477,276.421 748.172,274.645 744.801,278.013Z" style="fill:white;fill-rule:nonzero;"/>
                                    <path d="M567.951,282.836C576.781,275.778 588.261,263.134 597.679,250.489C609.157,235.492 630.937,205.204 643.298,183.738C644.629,181.246 646.521,176.409 646.06,173.678C645.735,176.373 644.344,179.779 643.298,181.738C630.937,203.204 609.156,233.492 597.679,248.489C588.261,261.134 576.782,273.778 567.951,280.836C566.068,282.404 565.785,283.881 566.458,284.568C566.747,284.029 567.226,283.44 567.951,282.836Z" style="fill:white;fill-rule:nonzero;"/>
                                    <path d="M631.648,174.255C631.785,174.09 631.934,173.92 632.114,173.74C641.238,166.682 660.958,159.037 671.847,158.743C680.076,158.743 683.701,161.427 684.152,165.697C684.681,160.28 681.298,156.743 671.847,156.743C660.957,157.037 641.238,164.682 632.114,171.74C630.701,173.151 630.673,174.147 631.648,174.255Z" style="fill:white;fill-rule:nonzero;"/>
                                    <path d="M723.315,190.324C724.645,187.832 726.538,182.995 726.077,180.265C725.752,182.96 724.361,186.366 723.315,188.324C710.954,209.79 689.173,240.079 677.695,255.076C672.196,262.459 665.996,269.834 660.028,276.105C648.975,286.59 627.145,305.167 610.629,311.418C596.424,316.72 590.789,314.205 590.28,307.511C589.818,315.657 595.092,319.218 610.629,313.418C627.146,307.166 648.976,288.59 660.028,278.105C665.996,271.834 672.196,264.459 677.695,257.076C689.174,242.079 710.954,211.791 723.315,190.324Z" style="fill:white;fill-rule:nonzero;"/>
                                </g>
                                <g>
                                    <path d="M514.847,300.244C505.961,307.828 497.546,311.915 496.477,308.272C495.187,314.999 504.713,310.892 514.847,302.244C530.741,287.835 553.404,260.193 566.942,239.903C571.357,229.611 577.244,217.848 583.424,216.084C591.045,213.816 596.154,217.795 596.952,221.581C597.932,217.442 592.427,211.405 583.424,214.084C577.243,215.848 571.357,227.611 566.942,237.903C553.403,258.193 530.74,285.835 514.847,300.244Z" style="fill:white;fill-rule:nonzero;"/>
                                    <path d="M506.95,247.412C506.623,248.895 505.648,250.695 503.957,252.606C494.539,263.486 478.057,282.306 473.936,294.363C472.346,299.208 471.708,303.317 471.845,306.744C471.977,303.75 472.644,300.298 473.936,296.363C478.056,284.306 494.539,265.486 503.957,254.606C506.515,251.718 507.432,249.083 506.95,247.412Z" style="fill:white;fill-rule:nonzero;"/>
                                    <path d="M453.334,281.66C465.107,271.956 480.117,254.312 491.301,245.785C506.721,233.933 525.188,238.711 525.92,253.788C526.79,237.148 507.385,231.424 491.301,243.785C480.117,252.312 465.107,269.956 453.334,279.66C451.423,281.222 450.956,283.184 451.553,283.994C451.852,283.235 452.425,282.402 453.334,281.66Z" style="fill:white;fill-rule:nonzero;"/>
                                    <path d="M375.458,358.222C376.007,356.62 378.04,357.356 378.282,359.292C382.402,381.347 401.533,396.343 423.607,396.343C454.216,396.343 486.592,369.878 512.492,334.591C530.74,309.596 545.456,281.954 559.584,254.607C558.173,256.762 556.688,258.941 555.17,261.111C542.368,285.652 528.851,310.185 512.492,332.591C486.593,367.878 454.217,394.343 423.607,394.343C401.533,394.343 382.402,379.347 378.282,357.292C377.987,354.939 375.044,354.352 375.338,357.586C375.375,357.802 375.42,358.007 375.458,358.222Z" style="fill:white;fill-rule:nonzero;"/>
                                </g>
                                <g>
                                    <path d="M320.568,279.74C310.267,285.034 297.905,287.974 292.902,287.974C288.206,287.974 287.641,289.469 290.141,290.223C290.817,290.071 291.724,289.974 292.902,289.974C297.905,289.974 310.267,287.034 320.568,281.74C332.477,275.274 336.812,268.126 336.181,262.946C335.626,267.878 331.01,274.07 320.568,279.74Z" style="fill:white;fill-rule:nonzero;"/>
                                    <path d="M364.624,283.953C359.084,298.815 355.874,312.628 356.017,323.918C356.267,312.187 359.902,297.95 365.844,282.752C365.438,283.158 365.03,283.554 364.624,283.953Z" style="fill:white;fill-rule:nonzero;"/>
                                    <path d="M276.883,308.513C276.493,318.048 281.599,324.934 292.019,324.674C308.6,324.437 335.28,304.776 352.277,290.209C352.757,289.609 353.341,288.982 354.071,288.34C360.252,283.047 365.255,276.283 372.025,268.05C391.745,224.529 414.407,191.006 449.137,158.953C483.628,127.265 512.375,132.127 513.355,152.245C514.219,130.483 484.743,124.242 449.137,156.953C414.407,189.006 391.744,222.528 372.025,266.05C365.255,274.283 360.252,281.047 354.071,286.34C353.342,286.983 352.758,287.61 352.277,288.209C335.28,302.775 308.6,322.437 292.019,322.674C282.343,322.915 277.25,316.994 276.883,308.513Z" style="fill:white;fill-rule:nonzero;"/>
                                    <path d="M430.594,224.881C427.365,226.239 426.892,227.887 427.856,228.7C428.333,228.099 429.209,227.463 430.594,226.881C448.842,218.647 475.331,199.533 489.459,184.83C502.106,171.539 507.033,162.289 506.301,157.623C505.655,162.706 500.499,171.228 489.459,182.83C475.331,197.533 448.842,216.647 430.594,224.881Z" style="fill:white;fill-rule:nonzero;"/>
                                    <path d="M427.062,274.519C434.628,268.719 437.882,261.61 437.451,256.152C437.054,261.273 433.734,267.406 427.062,272.519C415.878,281.047 393.804,287.516 386.74,283.399L385.268,282.517C384.645,281.481 384.028,280.444 383.509,279.408C383.312,279.641 383.109,279.871 382.914,280.107C383.503,281.577 384.386,283.047 385.268,284.517L386.74,285.399C393.804,289.516 415.878,283.047 427.062,274.519Z" style="fill:white;fill-rule:nonzero;"/>
                                    <path d="M450.313,306C450.313,311 445.31,314.255 439.718,315.137C427.222,317.079 403.205,303.467 390.147,288.575C389.37,288.378 388.62,288.206 387.917,287.941C400.279,303.82 426.473,319.379 439.718,317.32C445.31,316.437 450.313,312.837 450.313,308.404C450.313,307.801 451.284,307.498 451.644,307.88C451.727,307.335 451.785,307.001 451.785,306.001L450.313,306.001L450.313,306Z" style="fill:white;fill-rule:nonzero;"/>
                                    <path d="M322.334,246.453C336.506,246.87 343.586,252.596 344.21,259.916C344.783,251.664 337.772,244.907 322.334,244.453C289.664,243.277 250.52,271.213 250.814,306.206C250.816,306.326 250.826,306.441 250.829,306.56C251.75,272.342 290.178,245.296 322.334,246.453Z" style="fill:white;fill-rule:nonzero;"/>
                                    <path d="M426.768,236.343C415.995,240.7 403.432,249.532 390.25,265.161C388.126,268.448 386.158,271.587 384.386,274.515C399.691,254.225 414.407,243.341 426.768,238.342C444.439,231.551 457.58,237.304 458.325,248.186C459.133,236.034 445.493,229.147 426.768,236.343Z" style="fill:white;fill-rule:nonzero;"/>
                                    <path d="M364.828,331.673C364.713,338.623 365.869,344.187 368.38,347.299C368.89,347.046 369.149,346.429 368.492,345.446C366.149,342.659 364.951,337.792 364.828,331.673Z" style="fill:white;fill-rule:nonzero;"/>
                                </g>
                                <g>
                                    <path d="M236.002,242.865C236.46,242.376 237.111,242.008 237.607,242.008C241.139,241.714 247.32,243.184 249.674,252.3C250.195,254.547 250.484,256.955 250.556,259.503C250.606,256.21 250.329,253.124 249.674,250.3C247.32,241.184 241.139,239.714 237.607,240.008C236.464,240.008 234.5,241.945 236.002,242.865Z" style="fill:white;fill-rule:nonzero;"/>
                                    <path d="M58.45,357.785C59.025,356.441 61.077,357.19 61.309,359.044C65.429,381.099 84.266,396.095 106.34,396.095C134.007,396.095 174.329,362.279 200.817,325.521C207.587,316.406 225.246,290.234 234.37,269.944C233.668,270.83 232.948,271.687 232.219,272.515C222.7,291.998 207.089,315.077 200.817,323.521C174.329,360.279 134.006,394.095 106.34,394.095C84.266,394.095 65.429,379.099 61.309,357.044C61.015,354.69 57.777,354.104 58.366,357.338C58.391,357.489 58.423,357.634 58.45,357.785Z" style="fill:white;fill-rule:nonzero;"/>
                                    <path d="M216.71,281.412C222.597,276.707 237.607,262.886 239.667,250.83C239.667,250.325 239.62,249.856 239.55,249.405C237.124,261.323 222.503,274.781 216.71,279.412C216.082,280.04 216.1,280.988 216.439,281.779C216.513,281.649 216.598,281.524 216.71,281.412Z" style="fill:white;fill-rule:nonzero;"/>
                                </g>
                                <path d="M252.618,213.19C257.916,207.015 265.863,204.956 270.278,208.485C271.911,209.791 272.815,211.702 273.028,213.902C273.276,210.872 272.389,208.172 270.278,206.485C265.863,202.956 257.916,205.015 252.618,211.19C249.09,215.086 247.442,219.564 247.81,223.228C248.088,220.007 249.709,216.401 252.618,213.19Z" style="fill:white;fill-rule:nonzero;"/>
                            </g>
                        </g>
                    </g>
                </g>
            </g>
        </g>
    </g>
    <g transform="matrix(0.1125,-1.59378e-05,1.59378e-05,0.1125,960,540)">
        <g transform="matrix(1,0,0,1,-1000,-1004.14)">
            <clipPath id="_clip4">
                <rect x="0" y="0" width="2000" height="2008.28"/>
            </clipPath>
            <g clip-path="url(#_clip4)">
                <g id="layer1" transform="matrix(15.623,0,0,15.623,-3987.6,-6644.88)">
                    <g id="rect3050" transform="matrix(1,0,0,1,-5.4707e-06,0.0532314)">
                        <path d="M383.255,438.73C383.255,431.332 377.248,425.326 369.85,425.326L268.643,425.326C261.245,425.326 255.239,431.332 255.239,438.73L255.239,540.467C255.239,547.865 261.245,553.872 268.643,553.872L369.85,553.872C377.248,553.872 383.255,547.865 383.255,540.467L383.255,438.73Z" style="fill:rgb(64,124,191);"/>
                    </g>
                    <g id="path3841" transform="matrix(1.0052,0,0,0.994826,0,0)">
                        <path d="M318.556,483.165C321.809,483.165 324.275,482.45 325.955,481.021C327.635,479.591 328.475,477.482 328.475,474.695C328.475,471.943 327.635,469.852 325.955,468.422C324.275,466.957 321.809,466.224 318.556,466.224L307.137,466.224L307.137,483.165L318.556,483.165M319.253,518.174C323.399,518.174 326.509,517.298 328.582,515.547C330.69,513.795 331.745,511.151 331.745,507.612C331.745,504.145 330.708,501.554 328.635,499.838C326.562,498.087 323.435,497.212 319.253,497.211L307.137,497.211L307.137,518.174L319.253,518.174M338.446,489.384C342.878,490.671 346.309,493.048 348.74,496.515C351.17,499.981 352.385,504.235 352.385,509.274C352.385,516.994 349.776,522.748 344.558,526.537C339.34,530.326 331.405,532.22 320.754,532.22L286.497,532.22L286.497,452.178L317.484,452.178C328.6,452.178 336.641,453.858 341.609,457.217C346.613,460.577 349.115,465.956 349.115,473.354C349.115,477.25 348.204,480.574 346.381,483.326C344.558,486.042 341.913,488.062 338.446,489.384" style="fill:white;fill-rule:nonzero;"/>
                    </g>
                </g>
            </g>
        </g>
    </g>
    <g transform="matrix(0.966598,0,0,1,32.0661,6.32824)">
        <g transform="matrix(1,0,0,1,-24.0242,0)">
            <path d="M1667.31,701.115C1667.31,697.507 1664.28,694.577 1660.55,694.577L307.504,694.577C303.771,694.577 300.74,697.507 300.74,701.115L300.74,714.191C300.74,717.8 303.771,720.729 307.504,720.729L1660.55,720.729C1664.28,720.729 1667.31,717.8 1667.31,714.191L1667.31,701.115Z" style="fill:rgb(148,242,13);"/>
        </g>
        <g transform="matrix(1,0,0,1,-24.0242,-347.963)">
            <path d="M1667.31,701.115C1667.31,697.507 1664.28,694.577 1660.55,694.577L307.504,694.577C303.771,694.577 300.74,697.507 300.74,701.115L300.74,714.191C300.74,717.8 303.771,720.729 307.504,720.729L1660.55,720.729C1664.28,720.729 1667.31,717.8 1667.31,714.191L1667.31,701.115Z" style="fill:rgb(148,242,13);"/>
        </g>
    </g>
    <defs>
        <linearGradient id="_Linear2" x1="0" y1="0" x2="1" y2="0" gradientUnits="userSpaceOnUse" gradientTransform="matrix(83.3653,32.0577,-32.0577,83.3653,741.814,228.135)"><stop offset="0%" style="stop-color:rgb(145,145,145);stop-opacity:1"/><stop offset="100%" style="stop-color:white;stop-opacity:1"/></linearGradient>
        <linearGradient id="_Linear3" x1="0" y1="0" x2="1" y2="0" gradientUnits="userSpaceOnUse" gradientTransform="matrix(1.62555e-14,-265.472,265.472,1.62555e-14,411.259,399.636)"><stop offset="0%" style="stop-color:rgb(145,145,145);stop-opacity:1"/><stop offset="100%" style="stop-color:white;stop-opacity:1"/></linearGradient>
    </defs>
</svg>
